<?xml version="1.0" encoding="UTF-8"?>
<svg id="Layer_1" xmlns="http://www.w3.org/2000/svg" viewBox="0 0 123.8 150.1">
  <defs>
    <style>
      .cls-1 {
        fill: #556f44;
        fill-rule: evenodd;
      }
    </style>
  </defs>
  <g id="Layer_1-2" data-name="Layer_1">
    <path class="cls-1" d="M54.9,145.9h10.6l-1-31.9,14.8-22c4.3,2.6,9.3,4.2,14.7,4.2,15.4,0,27.9-12.5,27.9-27.9s-10.6-25.9-24.2-27.6h0c0-20.8-16.8-37.6-37.5-37.6S23.4,19,22.6,39c-11.1,2.8-19.3,12.8-19.3,24.8s11.5,25.6,25.6,25.6,9.1-1.3,12.9-3.5l14.1,18.4-.8,41.5h0l-.2.1ZM76.2,89.8l-11.6,12.9-.8-24.7c1.3-.1,2.6-.3,3.9-.6,1.7,4.9,4.7,9.2,8.6,12.4h-.1ZM50.7,77c1.8.5,3.7.8,5.6,1l-.6,16.8-10.6-11.3c2.2-1.8,4.1-4,5.6-6.5Z"/>
  </g>
</svg>